<svg width="48" height="48" viewBox="0 0 48 48" fill="none" xmlns="http://www.w3.org/2000/svg">
<g clip-path="url(#clip0_127_70)">
<path d="M40 0H8C3.58172 0 0 3.58172 0 8V40C0 44.4183 3.58172 48 8 48H40C44.4183 48 48 44.4183 48 40V8C48 3.58172 44.4183 0 40 0Z" fill="#222222"/>
<path d="M42.88 4.64H24.7834V43.52H42.88V4.64Z" fill="#7DAE89"/>
<path d="M5.552 34V16.4H8.368V19.76H9.04L8.112 21.84C8.112 19.9413 8.51734 18.512 9.328 17.552C10.16 16.5707 11.3867 16.08 13.008 16.08C14.864 16.08 16.336 16.6667 17.424 17.84C18.5333 18.992 19.088 20.56 19.088 22.544V23.6H16.208V22.8C16.208 21.4133 15.8667 20.3573 15.184 19.632C14.5227 18.8853 13.5733 18.512 12.336 18.512C11.12 18.512 10.16 18.8853 9.456 19.632C8.77334 20.3787 8.432 21.4347 8.432 22.8V34H5.552Z" fill="white"/>
</g>
<defs>
<clipPath id="clip0_127_70">
<rect width="48" height="48" fill="white"/>
</clipPath>
</defs>
</svg>
